<svg xmlns="http://www.w3.org/2000/svg" xmlns:v="https://vecta.io/nano" width="49" height="49" fill="none"><path d="M8.953 45C8.427 45 8 44.547 8 43.987v-19.42c0-3.727 1.139-7.246 3.295-10.178.324-.441.923-.519 1.338-.175s.489.981.164 1.422c-1.891 2.572-2.891 5.66-2.891 8.931v19.42c0 .559-.427 1.013-.953 1.013zm31.023 0a1.02 1.02 0 0 1-1.024-1.013v-19.43c0-8.012-6.59-14.53-14.69-14.53-1.682 0-3.328.278-4.895.826-.533.187-1.119-.09-1.307-.617a1.01 1.01 0 0 1 .624-1.293C20.47 8.317 22.346 8 24.261 8 33.491 8 41 15.427 41 24.557v19.43A1.02 1.02 0 0 1 39.976 45zM16 47.99V24.755C16 19.927 19.865 16 24.615 16c2.276 0 4.363.922 5.877 2.596 1.439 1.592 2.283 3.765 2.376 6.118.124 3.159.158 4.653.112 7.277-.01.551-.453.992-.993.992-.567-.01-1.004-.47-.994-1.028.045-2.573.012-4.045-.111-7.16-.074-1.876-.732-3.592-1.854-4.832-1.15-1.271-2.676-1.943-4.413-1.943-3.655 0-6.628 3.021-6.628 6.735V47.99c0 .558-.445 1.01-.994 1.01S16 48.548 16 47.99zM32 49a.99.99 0 0 1-1-.979v-7.042A.99.99 0 0 1 32 40a.99.99 0 0 1 1 .979v7.042A.99.99 0 0 1 32 49zm-7.02 0c-.561-.011-.99-.454-.98-.989l.041-2.06c.011-.529.447-.95.979-.95.561.011.99.453.98.989l-.041 2.06c-.011.529-.447.95-.979.95zM24 39c-.552 0-1-.444-1-.993V24.993c0-.548.448-.992 1-.992s1 .444 1 .992v13.015c0 .548-.448.993-1 .993zM.975 39C.436 39 0 38.552 0 37.999v-13.44l.053-1.624c.036-.552.501-.969 1.038-.932s.943.514.907 1.066l-.048 1.49v13.44c0 .553-.436 1.001-.975 1.001z" fill-rule="evenodd" fill="#3de0de"></path><mask id="A" maskUnits="userSpaceOnUse" x="2" y="0" width="40" height="17"><path fill-rule="evenodd" d="M2.082.07h39.064v16.141H2.082V.07z" fill="#fff"></path></mask><g mask="url(#A)"><path fill-rule="evenodd" d="M3.111 16.211c-.134 0-.27-.026-.4-.08-.523-.216-.768-.806-.547-1.318 1.868-4.316 4.963-7.988 8.949-10.62C15.198 1.496 19.973.07 24.922.07c5.792 0 11.423 1.999 15.856 5.63a.99.99 0 0 1 .128 1.417c-.365.426-1.014.481-1.449.125-4.063-3.328-9.225-5.16-14.534-5.16-4.537 0-8.914 1.307-12.658 3.779-3.655 2.414-6.493 5.781-8.205 9.737a1.03 1.03 0 0 1-.948.614z" fill="#3de0de"></path></g><mask id="B" maskUnits="userSpaceOnUse" x="44" y="12" width="5" height="28"><path fill-rule="evenodd" d="M44.018 12.028h4.755v27.406h-4.754V12.028z" fill="#fff"></path></mask><g mask="url(#B)"><path fill-rule="evenodd" d="M47.786 39.434c-.544 0-.986-.463-.986-1.035V24.505c0-3.825-.92-7.609-2.661-10.944-.262-.501-.087-1.13.39-1.405s1.077-.091 1.338.41a25.89 25.89 0 0 1 2.904 11.939v13.895c0 .572-.441 1.035-.986 1.035z" fill="#3de0de"></path></g></svg>