<svg xmlns="http://www.w3.org/2000/svg" xmlns:v="https://vecta.io/nano" width="61" height="60" fill="none"><path fill-rule="evenodd" d="M44.214 53.307c-10.251 4.203-10.6 4.07-14.936 2.433l-17.453-5.816c.978-3.255 2.277-7.863 3.075-11.798l20.891 4.64c2.44.61 3.462 1.504 3.68 3.376l-2.062.514c-.827.21-1.709.227-2.549.059l-10.713-2.141c-.874-.158-1.716.39-1.889 1.262s.39 1.714 1.259 1.887l10.716 2.141a8.97 8.97 0 0 0 1.763.175c.738 0 1.477-.089 2.188-.269l3.324-.83 9.461-2.366c1.847-.462 3.732.094 5.013 1.383l-11.768 5.349zM3.208 51.951V33.056c3.942.331 7.552.961 9.039 1.571-.694 5.26-3.425 14.21-4.406 17.325H3.208zm17.288-33.921h13.215c.884 0 1.603-.719 1.603-1.608V3.213h16.549v40.013c-.556.027-1.114.094-1.674.235l-7.609 1.902c-.659-3.89-3.675-5.129-6.051-5.72l-16.033-3.564V18.031zm11.61-12.548v9.335h-9.338l9.338-9.335zm27.737 42.419c-1.02-2.042-2.756-3.487-4.771-4.196v-42.1C55.071.719 54.352 0 53.468 0H33.711c-.215 0-.425.044-.617.126a1.61 1.61 0 0 0-.519.343L17.757 15.287c-.146.148-.264.321-.346.516a1.67 1.67 0 0 0-.123.62v18.942l-1.852-.41.116-1.015a1.61 1.61 0 0 0-.494-1.304C12.85 30.542 4.275 29.883 1.699 29.73c-.44-.01-.872.133-1.195.435S0 30.89 0 31.332v22.227c0 .887.719 1.605 1.605 1.605h7.409c.694 0 1.309-.447 1.524-1.106l.341-1.067 17.325 5.774c2.124.803 3.66 1.235 5.305 1.235 2.685 0 5.663-1.156 11.98-3.746l13.583-6.174c.395-.18.701-.514.847-.926a1.6 1.6 0 0 0-.077-1.252z" fill="#777d8d"></path></svg>