<svg xmlns="http://www.w3.org/2000/svg" xmlns:v="https://vecta.io/nano" width="50" height="50" fill="none"><mask id="A" maskUnits="userSpaceOnUse" x="0" y="0" width="50" height="50"><path fill-rule="evenodd" d="M0 0h49.625v49.625H0V0z" fill="#fff"></path></mask><g mask="url(#A)"><path fill-rule="evenodd" d="M48.592 43.42l-42.389.002.001-42.389C6.204.462 5.741 0 5.17 0S4.136.462 4.136 1.034v42.388H1.034c-.571 0-1.034.462-1.034 1.034s.463 1.033 1.034 1.033h3.102v3.102c0 .571.462 1.034 1.034 1.034s1.033-.463 1.033-1.034v-3.102l42.389-.001c.571 0 1.034-.463 1.034-1.034s-.463-1.034-1.034-1.034z" fill="#3de0de"></path></g><path fill-rule="evenodd" d="M47.557 17.146l-6.809-6.809h6.809v6.809zm1.034-8.876H38.252c-.418 0-.796.252-.955.638s-.072.832.224 1.127l4.438 4.438-9.91 9.91-3.405-3.404c-.403-.403-1.058-.403-1.462.001L10.64 37.522c-.403.403-.403 1.058 0 1.462.203.202.467.303.731.303a1.03 1.03 0 0 0 .731-.303l15.811-15.812 3.405 3.405c.404.404 1.058.404 1.462 0l10.641-10.642 4.439 4.438a1.03 1.03 0 0 0 1.126.224 1.03 1.03 0 0 0 .638-.955V9.303c0-.571-.462-1.033-1.033-1.033z" fill="#3de0de"></path></svg>