<svg xmlns="http://www.w3.org/2000/svg" xmlns:v="https://vecta.io/nano" width="42" height="50" fill="none"><mask id="A" maskUnits="userSpaceOnUse" x="0" y="0" width="42" height="50"><path fill-rule="evenodd" d="M0 .725h41.783V49.18H0V.725z" fill="#fff"></path></mask><g mask="url(#A)"><path fill-rule="evenodd" d="M2.019 8.565v21.432c0 4.133 3.677 7.948 6.761 10.419 4.182 3.352 8.936 5.617 12.111 6.665 7.822-2.569 18.872-10.01 18.872-17.084V8.565L20.892 2.819 2.019 8.565zm18.873 40.616c-.101 0-.203-.016-.3-.047C13.411 46.867 0 38.927 0 29.997V7.803c0-.452.292-.852.72-.981L20.601.768a.99.99 0 0 1 .581 0l19.882 6.053c.426.13.719.529.719.981v22.194c0 8.93-13.411 16.871-20.591 19.137-.098.031-.199.047-.3.047z" fill="#3de0de"></path></g><path d="M21 15.028c-4.948 0-8.972 4.024-8.972 8.972s4.024 8.971 8.972 8.971 8.972-4.024 8.972-8.971-4.025-8.972-8.972-8.972zM21 35c-6.065 0-11-4.935-11-11s4.935-11 11-11 11 4.935 11 11-4.934 11-11 11zm-1.995-6a1.01 1.01 0 0 1-.717-.296l-3.991-3.988a1.01 1.01 0 0 1 0-1.431c.396-.395 1.037-.395 1.433 0l3.275 3.271 7.265-7.259c.396-.395 1.038-.395 1.433 0s.396 1.036 0 1.432l-7.982 7.975a1.01 1.01 0 0 1-.717.296z" fill-rule="evenodd" fill="#3de0de"></path></svg>